<svg viewBox="0 0 200 200" xmlns="http://www.w3.org/2000/svg">
  <path fill="#FF0066" d="M40.2,-75C49.4,-64.4,52.2,-48.1,56.8,-34.6C61.3,-21.2,67.5,-10.6,69.7,1.3C71.9,13.1,70.1,26.3,62.5,34.4C54.8,42.4,41.4,45.5,30.1,50.8C18.7,56.1,9.3,63.7,-3.3,69.5C-16,75.3,-32,79.3,-45.6,75.2C-59.2,71.2,-70.3,59.1,-72.7,45.2C-75.1,31.3,-68.9,15.7,-66.8,1.2C-64.7,-13.2,-66.7,-26.5,-63.8,-39.6C-61,-52.7,-53.2,-65.7,-41.7,-75C-30.3,-84.3,-15.1,-89.9,0.2,-90.3C15.5,-90.6,31.1,-85.7,40.2,-75Z" transform="translate(100 100)" />
</svg>